<svg xmlns="http://www.w3.org/2000/svg" viewBox="0 0 200 150" fill="none">
  <!-- Back stacked card -->
  <rect x="38" y="18" width="120" height="80" rx="2" fill="#e8e8ec" stroke="#c8c8d0" stroke-width="1.5"/>
  <!-- Middle stacked card -->
  <rect x="30" y="26" width="120" height="80" rx="2" fill="#f0f0f4" stroke="#c8c8d0" stroke-width="1.5"/>
  <!-- Main card -->
  <rect x="22" y="34" width="120" height="80" rx="2" fill="white" stroke="#c8c8d0" stroke-width="1.5"/>
  <!-- Card line details -->
  <rect x="36" y="50" width="40" height="3" rx="1.5" fill="#c8c8d0"/>
  <rect x="36" y="58" width="60" height="3" rx="1.5" fill="#c8c8d0" opacity="0.5"/>
  <rect x="36" y="66" width="50" height="3" rx="1.5" fill="#c8c8d0" opacity="0.5"/>
  <!-- Checkmark circle -->
  <circle cx="118" cy="90" r="22" fill="#3211d4" opacity="0.1" stroke="#3211d4" stroke-width="2"/>
  <path d="M108 90l6 6 12-12" stroke="#3211d4" stroke-width="2.5" stroke-linecap="round" stroke-linejoin="round" fill="none"/>
  <!-- Sparkle accents -->
  <g fill="#3211d4" opacity="0.4">
    <path d="M155 30l2 5 2-5 -2-5z"/>
    <path d="M155 30l5-2 -5-2 -5 2z"/>
  </g>
  <g fill="#3211d4" opacity="0.25">
    <path d="M15 50l1.5 3.5 1.5-3.5 -1.5-3.5z"/>
    <path d="M15 50l3.5-1.5 -3.5-1.5 -3.5 1.5z"/>
  </g>
  <g fill="#3211d4" opacity="0.3">
    <path d="M160 75l1.5 3.5 1.5-3.5 -1.5-3.5z"/>
    <path d="M160 75l3.5-1.5 -3.5-1.5 -3.5 1.5z"/>
  </g>
</svg>
